<mxfile host="app.diagrams.net" agent="Mozilla/5.0 (Windows NT 10.0; Win64; x64) AppleWebKit/537.36 (KHTML, like Gecko) Chrome/137.0.0.0 Safari/537.36" version="28.2.7">
  <diagram name="Página-2" id="g81KhQcu8tYgNyykIX9O">
    <mxGraphModel dx="1426" dy="777" grid="1" gridSize="10" guides="1" tooltips="1" connect="1" arrows="1" fold="1" page="1" pageScale="1" pageWidth="827" pageHeight="1169" math="0" shadow="0">
      <root>
        <mxCell id="0" />
        <mxCell id="1" parent="0" />
        <mxCell id="vfF3qjRgKQr_32k6vTMR-1" style="edgeStyle=none;curved=1;rounded=0;orthogonalLoop=1;jettySize=auto;html=1;fontSize=12;startSize=20;endSize=20;endArrow=blockThin;endFill=0;" edge="1" parent="1" source="vfF3qjRgKQr_32k6vTMR-2">
          <mxGeometry relative="1" as="geometry">
            <mxPoint x="724" y="132" as="targetPoint" />
          </mxGeometry>
        </mxCell>
        <mxCell id="vfF3qjRgKQr_32k6vTMR-2" value="" style="shape=table;startSize=0;container=1;collapsible=0;childLayout=tableLayout;" vertex="1" parent="1">
          <mxGeometry x="813" y="152" width="155" height="202.66" as="geometry" />
        </mxCell>
        <mxCell id="vfF3qjRgKQr_32k6vTMR-3" value="" style="shape=tableRow;horizontal=0;startSize=0;swimlaneHead=0;swimlaneBody=0;strokeColor=inherit;top=0;left=0;bottom=0;right=0;collapsible=0;dropTarget=0;fillColor=none;points=[[0,0.5],[1,0.5]];portConstraint=eastwest;" vertex="1" parent="vfF3qjRgKQr_32k6vTMR-2">
          <mxGeometry width="155" height="33" as="geometry" />
        </mxCell>
        <mxCell id="vfF3qjRgKQr_32k6vTMR-4" value="Administrador&amp;nbsp;" style="shape=partialRectangle;html=1;whiteSpace=wrap;connectable=0;strokeColor=inherit;overflow=hidden;fillColor=none;top=0;left=0;bottom=0;right=0;pointerEvents=1;" vertex="1" parent="vfF3qjRgKQr_32k6vTMR-3">
          <mxGeometry width="155" height="33" as="geometry">
            <mxRectangle width="155" height="33" as="alternateBounds" />
          </mxGeometry>
        </mxCell>
        <mxCell id="vfF3qjRgKQr_32k6vTMR-5" value="" style="shape=tableRow;horizontal=0;startSize=0;swimlaneHead=0;swimlaneBody=0;strokeColor=inherit;top=0;left=0;bottom=0;right=0;collapsible=0;dropTarget=0;fillColor=none;points=[[0,0.5],[1,0.5]];portConstraint=eastwest;" vertex="1" parent="vfF3qjRgKQr_32k6vTMR-2">
          <mxGeometry y="33" width="155" height="121" as="geometry" />
        </mxCell>
        <mxCell id="vfF3qjRgKQr_32k6vTMR-6" value="&amp;nbsp; &amp;nbsp;-nomeAdm: string&lt;div&gt;&amp;nbsp; &amp;nbsp;-emailIntitu: string&lt;/div&gt;" style="shape=partialRectangle;html=1;whiteSpace=wrap;connectable=0;strokeColor=inherit;overflow=hidden;fillColor=none;top=0;left=0;bottom=0;right=0;pointerEvents=1;align=left;" vertex="1" parent="vfF3qjRgKQr_32k6vTMR-5">
          <mxGeometry width="155" height="121" as="geometry">
            <mxRectangle width="155" height="121" as="alternateBounds" />
          </mxGeometry>
        </mxCell>
        <mxCell id="vfF3qjRgKQr_32k6vTMR-7" value="" style="shape=tableRow;horizontal=0;startSize=0;swimlaneHead=0;swimlaneBody=0;strokeColor=inherit;top=0;left=0;bottom=0;right=0;collapsible=0;dropTarget=0;fillColor=none;points=[[0,0.5],[1,0.5]];portConstraint=eastwest;" vertex="1" parent="vfF3qjRgKQr_32k6vTMR-2">
          <mxGeometry y="154" width="155" height="49" as="geometry" />
        </mxCell>
        <mxCell id="vfF3qjRgKQr_32k6vTMR-8" value="&amp;nbsp; &amp;nbsp;+atualizCatálogo():" style="shape=partialRectangle;html=1;whiteSpace=wrap;connectable=0;strokeColor=inherit;overflow=hidden;fillColor=none;top=0;left=0;bottom=0;right=0;pointerEvents=1;align=left;" vertex="1" parent="vfF3qjRgKQr_32k6vTMR-7">
          <mxGeometry width="155" height="49" as="geometry">
            <mxRectangle width="155" height="49" as="alternateBounds" />
          </mxGeometry>
        </mxCell>
        <mxCell id="vfF3qjRgKQr_32k6vTMR-9" value="" style="shape=table;startSize=0;container=1;collapsible=0;childLayout=tableLayout;" vertex="1" parent="1">
          <mxGeometry x="300" y="168" width="158" height="202.96886195591551" as="geometry" />
        </mxCell>
        <mxCell id="vfF3qjRgKQr_32k6vTMR-10" value="" style="shape=tableRow;horizontal=0;startSize=0;swimlaneHead=0;swimlaneBody=0;strokeColor=inherit;top=0;left=0;bottom=0;right=0;collapsible=0;dropTarget=0;fillColor=none;points=[[0,0.5],[1,0.5]];portConstraint=eastwest;" vertex="1" parent="vfF3qjRgKQr_32k6vTMR-9">
          <mxGeometry width="158" height="37" as="geometry" />
        </mxCell>
        <mxCell id="vfF3qjRgKQr_32k6vTMR-11" value="Cliente&amp;nbsp;" style="shape=partialRectangle;html=1;whiteSpace=wrap;connectable=0;strokeColor=inherit;overflow=hidden;fillColor=none;top=0;left=0;bottom=0;right=0;pointerEvents=1;" vertex="1" parent="vfF3qjRgKQr_32k6vTMR-10">
          <mxGeometry width="158" height="37" as="geometry">
            <mxRectangle width="158" height="37" as="alternateBounds" />
          </mxGeometry>
        </mxCell>
        <mxCell id="vfF3qjRgKQr_32k6vTMR-12" value="" style="shape=tableRow;horizontal=0;startSize=0;swimlaneHead=0;swimlaneBody=0;strokeColor=inherit;top=0;left=0;bottom=0;right=0;collapsible=0;dropTarget=0;fillColor=none;points=[[0,0.5],[1,0.5]];portConstraint=eastwest;" vertex="1" parent="vfF3qjRgKQr_32k6vTMR-9">
          <mxGeometry y="37" width="158" height="116" as="geometry" />
        </mxCell>
        <mxCell id="vfF3qjRgKQr_32k6vTMR-13" value="&amp;nbsp; -nomeCliente: string&lt;div&gt;&amp;nbsp; -turma: int&lt;br&gt;&lt;div&gt;&amp;nbsp; - emailInstitu: string&lt;/div&gt;&lt;div&gt;&amp;nbsp; -infoPagamento: string&lt;/div&gt;&lt;div&gt;&amp;nbsp; - infoHorario: string&lt;/div&gt;&lt;div&gt;&amp;nbsp; -saldoConta: float&lt;/div&gt;&lt;/div&gt;" style="shape=partialRectangle;html=1;whiteSpace=wrap;connectable=0;strokeColor=inherit;overflow=hidden;fillColor=none;top=0;left=0;bottom=0;right=0;pointerEvents=1;align=left;" vertex="1" parent="vfF3qjRgKQr_32k6vTMR-12">
          <mxGeometry width="158" height="116" as="geometry">
            <mxRectangle width="158" height="116" as="alternateBounds" />
          </mxGeometry>
        </mxCell>
        <mxCell id="vfF3qjRgKQr_32k6vTMR-14" value="" style="shape=tableRow;horizontal=0;startSize=0;swimlaneHead=0;swimlaneBody=0;strokeColor=inherit;top=0;left=0;bottom=0;right=0;collapsible=0;dropTarget=0;fillColor=none;points=[[0,0.5],[1,0.5]];portConstraint=eastwest;" vertex="1" parent="vfF3qjRgKQr_32k6vTMR-9">
          <mxGeometry y="153" width="158" height="50" as="geometry" />
        </mxCell>
        <mxCell id="vfF3qjRgKQr_32k6vTMR-15" value="&amp;nbsp; +cadastro():&lt;div&gt;&amp;nbsp; +login():&lt;/div&gt;&lt;div&gt;&amp;nbsp; +atualzPerfil():&lt;/div&gt;" style="shape=partialRectangle;html=1;whiteSpace=wrap;connectable=0;strokeColor=inherit;overflow=hidden;fillColor=none;top=0;left=0;bottom=0;right=0;pointerEvents=1;align=left;" vertex="1" parent="vfF3qjRgKQr_32k6vTMR-14">
          <mxGeometry width="158" height="50" as="geometry">
            <mxRectangle width="158" height="50" as="alternateBounds" />
          </mxGeometry>
        </mxCell>
        <mxCell id="vfF3qjRgKQr_32k6vTMR-16" value="" style="shape=table;startSize=0;container=1;collapsible=0;childLayout=tableLayout;" vertex="1" parent="1">
          <mxGeometry x="547" y="40" width="156" height="176.98224244294363" as="geometry" />
        </mxCell>
        <mxCell id="vfF3qjRgKQr_32k6vTMR-17" style="shape=tableRow;horizontal=0;startSize=0;swimlaneHead=0;swimlaneBody=0;strokeColor=inherit;top=0;left=0;bottom=0;right=0;collapsible=0;dropTarget=0;fillColor=none;points=[[0,0.5],[1,0.5]];portConstraint=eastwest;" vertex="1" parent="vfF3qjRgKQr_32k6vTMR-16">
          <mxGeometry width="156" height="38" as="geometry" />
        </mxCell>
        <mxCell id="vfF3qjRgKQr_32k6vTMR-18" value="Usuário" style="shape=partialRectangle;html=1;whiteSpace=wrap;connectable=0;strokeColor=inherit;overflow=hidden;fillColor=none;top=0;left=0;bottom=0;right=0;pointerEvents=1;" vertex="1" parent="vfF3qjRgKQr_32k6vTMR-17">
          <mxGeometry width="156" height="38" as="geometry">
            <mxRectangle width="156" height="38" as="alternateBounds" />
          </mxGeometry>
        </mxCell>
        <mxCell id="vfF3qjRgKQr_32k6vTMR-19" style="shape=tableRow;horizontal=0;startSize=0;swimlaneHead=0;swimlaneBody=0;strokeColor=inherit;top=0;left=0;bottom=0;right=0;collapsible=0;dropTarget=0;fillColor=none;points=[[0,0.5],[1,0.5]];portConstraint=eastwest;" vertex="1" parent="vfF3qjRgKQr_32k6vTMR-16">
          <mxGeometry y="38" width="156" height="102" as="geometry" />
        </mxCell>
        <mxCell id="vfF3qjRgKQr_32k6vTMR-20" value="&lt;div style=&quot;&quot;&gt;&lt;span style=&quot;background-color: transparent; color: light-dark(rgb(0, 0, 0), rgb(255, 255, 255));&quot;&gt;&amp;nbsp; -numUsuar: string&lt;/span&gt;&lt;/div&gt;&lt;div style=&quot;&quot;&gt;&lt;span style=&quot;background-color: transparent; color: light-dark(rgb(0, 0, 0), rgb(255, 255, 255));&quot;&gt;&amp;nbsp; -Senha: string&amp;nbsp; &amp;nbsp; &amp;nbsp; &amp;nbsp;&lt;/span&gt;&lt;/div&gt;&lt;div style=&quot;&quot;&gt;&amp;nbsp; -estadLogin: string&lt;/div&gt;&lt;div style=&quot;&quot;&gt;&amp;nbsp; -dataCadastr: date&lt;/div&gt;" style="shape=partialRectangle;html=1;whiteSpace=wrap;connectable=0;strokeColor=inherit;overflow=hidden;fillColor=none;top=0;left=0;bottom=0;right=0;pointerEvents=1;align=left;" vertex="1" parent="vfF3qjRgKQr_32k6vTMR-19">
          <mxGeometry width="156" height="102" as="geometry">
            <mxRectangle width="156" height="102" as="alternateBounds" />
          </mxGeometry>
        </mxCell>
        <mxCell id="vfF3qjRgKQr_32k6vTMR-21" value="" style="shape=tableRow;horizontal=0;startSize=0;swimlaneHead=0;swimlaneBody=0;strokeColor=inherit;top=0;left=0;bottom=0;right=0;collapsible=0;dropTarget=0;fillColor=none;points=[[0,0.5],[1,0.5]];portConstraint=eastwest;" vertex="1" parent="vfF3qjRgKQr_32k6vTMR-16">
          <mxGeometry y="140" width="156" height="37" as="geometry" />
        </mxCell>
        <mxCell id="vfF3qjRgKQr_32k6vTMR-22" value="&amp;nbsp; +verifLogin():" style="shape=partialRectangle;html=1;whiteSpace=wrap;connectable=0;strokeColor=inherit;overflow=hidden;fillColor=none;top=0;left=0;bottom=0;right=0;pointerEvents=1;align=left;" vertex="1" parent="vfF3qjRgKQr_32k6vTMR-21">
          <mxGeometry width="156" height="37" as="geometry">
            <mxRectangle width="156" height="37" as="alternateBounds" />
          </mxGeometry>
        </mxCell>
        <mxCell id="vfF3qjRgKQr_32k6vTMR-23" value="" style="shape=table;startSize=0;container=1;collapsible=0;childLayout=tableLayout;" vertex="1" parent="1">
          <mxGeometry x="40" y="354.65999999999997" width="159" height="220.77" as="geometry" />
        </mxCell>
        <mxCell id="vfF3qjRgKQr_32k6vTMR-24" value="" style="shape=tableRow;horizontal=0;startSize=0;swimlaneHead=0;swimlaneBody=0;strokeColor=inherit;top=0;left=0;bottom=0;right=0;collapsible=0;dropTarget=0;fillColor=none;points=[[0,0.5],[1,0.5]];portConstraint=eastwest;" vertex="1" parent="vfF3qjRgKQr_32k6vTMR-23">
          <mxGeometry width="159" height="35" as="geometry" />
        </mxCell>
        <mxCell id="vfF3qjRgKQr_32k6vTMR-25" value="Carrinho de compras&amp;nbsp;" style="shape=partialRectangle;html=1;whiteSpace=wrap;connectable=0;strokeColor=inherit;overflow=hidden;fillColor=none;top=0;left=0;bottom=0;right=0;pointerEvents=1;" vertex="1" parent="vfF3qjRgKQr_32k6vTMR-24">
          <mxGeometry width="159" height="35" as="geometry">
            <mxRectangle width="159" height="35" as="alternateBounds" />
          </mxGeometry>
        </mxCell>
        <mxCell id="vfF3qjRgKQr_32k6vTMR-26" value="" style="shape=tableRow;horizontal=0;startSize=0;swimlaneHead=0;swimlaneBody=0;strokeColor=inherit;top=0;left=0;bottom=0;right=0;collapsible=0;dropTarget=0;fillColor=none;points=[[0,0.5],[1,0.5]];portConstraint=eastwest;" vertex="1" parent="vfF3qjRgKQr_32k6vTMR-23">
          <mxGeometry y="35" width="159" height="111" as="geometry" />
        </mxCell>
        <mxCell id="vfF3qjRgKQr_32k6vTMR-27" value="&amp;nbsp; -numCarrinho: int&lt;div&gt;&amp;nbsp; -numProduto: int&lt;/div&gt;&lt;div&gt;&amp;nbsp; -quantidade: int&lt;/div&gt;&lt;div&gt;&amp;nbsp; -horarioAdd: time&lt;/div&gt;" style="shape=partialRectangle;html=1;whiteSpace=wrap;connectable=0;strokeColor=inherit;overflow=hidden;fillColor=none;top=0;left=0;bottom=0;right=0;pointerEvents=1;align=left;" vertex="1" parent="vfF3qjRgKQr_32k6vTMR-26">
          <mxGeometry width="159" height="111" as="geometry">
            <mxRectangle width="159" height="111" as="alternateBounds" />
          </mxGeometry>
        </mxCell>
        <mxCell id="vfF3qjRgKQr_32k6vTMR-28" value="" style="shape=tableRow;horizontal=0;startSize=0;swimlaneHead=0;swimlaneBody=0;strokeColor=inherit;top=0;left=0;bottom=0;right=0;collapsible=0;dropTarget=0;fillColor=none;points=[[0,0.5],[1,0.5]];portConstraint=eastwest;" vertex="1" parent="vfF3qjRgKQr_32k6vTMR-23">
          <mxGeometry y="146" width="159" height="75" as="geometry" />
        </mxCell>
        <mxCell id="vfF3qjRgKQr_32k6vTMR-29" value="&amp;nbsp; +addItemCarrinho():&lt;div&gt;&amp;nbsp; +atualizQuant():&lt;/div&gt;&lt;div&gt;&amp;nbsp; +verDetalheCarrinho():&lt;/div&gt;&lt;div&gt;&amp;nbsp; +prossegCompra():&lt;/div&gt;" style="shape=partialRectangle;html=1;whiteSpace=wrap;connectable=0;strokeColor=inherit;overflow=hidden;fillColor=none;top=0;left=0;bottom=0;right=0;pointerEvents=1;align=left;" vertex="1" parent="vfF3qjRgKQr_32k6vTMR-28">
          <mxGeometry width="159" height="75" as="geometry">
            <mxRectangle width="159" height="75" as="alternateBounds" />
          </mxGeometry>
        </mxCell>
        <mxCell id="vfF3qjRgKQr_32k6vTMR-30" value="" style="shape=table;startSize=0;container=1;collapsible=0;childLayout=tableLayout;" vertex="1" parent="1">
          <mxGeometry x="296" y="569" width="159.10055446624756" height="173.21" as="geometry" />
        </mxCell>
        <mxCell id="vfF3qjRgKQr_32k6vTMR-31" value="" style="shape=tableRow;horizontal=0;startSize=0;swimlaneHead=0;swimlaneBody=0;strokeColor=inherit;top=0;left=0;bottom=0;right=0;collapsible=0;dropTarget=0;fillColor=none;points=[[0,0.5],[1,0.5]];portConstraint=eastwest;" vertex="1" parent="vfF3qjRgKQr_32k6vTMR-30">
          <mxGeometry width="159.10055446624756" height="20" as="geometry" />
        </mxCell>
        <mxCell id="vfF3qjRgKQr_32k6vTMR-32" value="Pedido" style="shape=partialRectangle;html=1;whiteSpace=wrap;connectable=0;strokeColor=inherit;overflow=hidden;fillColor=none;top=0;left=0;bottom=0;right=0;pointerEvents=1;" vertex="1" parent="vfF3qjRgKQr_32k6vTMR-31">
          <mxGeometry width="159" height="20" as="geometry">
            <mxRectangle width="159" height="20" as="alternateBounds" />
          </mxGeometry>
        </mxCell>
        <mxCell id="vfF3qjRgKQr_32k6vTMR-33" value="" style="shape=tableRow;horizontal=0;startSize=0;swimlaneHead=0;swimlaneBody=0;strokeColor=inherit;top=0;left=0;bottom=0;right=0;collapsible=0;dropTarget=0;fillColor=none;points=[[0,0.5],[1,0.5]];portConstraint=eastwest;" vertex="1" parent="vfF3qjRgKQr_32k6vTMR-30">
          <mxGeometry y="20" width="159.10055446624756" height="114" as="geometry" />
        </mxCell>
        <mxCell id="vfF3qjRgKQr_32k6vTMR-34" value="&amp;nbsp; -numPedido: int&lt;div&gt;&amp;nbsp; -horarioCriac: time&lt;/div&gt;&lt;div&gt;&amp;nbsp; -horarioEnvio: time&lt;/div&gt;&lt;div&gt;&amp;nbsp; -nomeCliente: string&lt;/div&gt;&lt;div&gt;&amp;nbsp; -numCliente: int&lt;/div&gt;&lt;div&gt;&amp;nbsp; -numEnvio: int&lt;/div&gt;" style="shape=partialRectangle;html=1;whiteSpace=wrap;connectable=0;strokeColor=inherit;overflow=hidden;fillColor=none;top=0;left=0;bottom=0;right=0;pointerEvents=1;align=left;" vertex="1" parent="vfF3qjRgKQr_32k6vTMR-33">
          <mxGeometry width="159" height="114" as="geometry">
            <mxRectangle width="159" height="114" as="alternateBounds" />
          </mxGeometry>
        </mxCell>
        <mxCell id="vfF3qjRgKQr_32k6vTMR-35" value="" style="shape=tableRow;horizontal=0;startSize=0;swimlaneHead=0;swimlaneBody=0;strokeColor=inherit;top=0;left=0;bottom=0;right=0;collapsible=0;dropTarget=0;fillColor=none;points=[[0,0.5],[1,0.5]];portConstraint=eastwest;" vertex="1" parent="vfF3qjRgKQr_32k6vTMR-30">
          <mxGeometry y="134" width="159.10055446624756" height="39" as="geometry" />
        </mxCell>
        <mxCell id="vfF3qjRgKQr_32k6vTMR-36" value="&amp;nbsp; +finalizarPedido():" style="shape=partialRectangle;html=1;whiteSpace=wrap;connectable=0;strokeColor=inherit;overflow=hidden;fillColor=none;top=0;left=0;bottom=0;right=0;pointerEvents=1;align=left;" vertex="1" parent="vfF3qjRgKQr_32k6vTMR-35">
          <mxGeometry width="159" height="39" as="geometry">
            <mxRectangle width="159" height="39" as="alternateBounds" />
          </mxGeometry>
        </mxCell>
        <mxCell id="vfF3qjRgKQr_32k6vTMR-37" value="" style="shape=table;startSize=0;container=1;collapsible=0;childLayout=tableLayout;align=left;" vertex="1" parent="1">
          <mxGeometry x="554" y="300" width="152.01089096069336" height="208.33962249755882" as="geometry" />
        </mxCell>
        <mxCell id="vfF3qjRgKQr_32k6vTMR-38" value="" style="shape=tableRow;horizontal=0;startSize=0;swimlaneHead=0;swimlaneBody=0;strokeColor=inherit;top=0;left=0;bottom=0;right=0;collapsible=0;dropTarget=0;fillColor=none;points=[[0,0.5],[1,0.5]];portConstraint=eastwest;" vertex="1" parent="vfF3qjRgKQr_32k6vTMR-37">
          <mxGeometry width="152.01089096069336" height="47" as="geometry" />
        </mxCell>
        <mxCell id="vfF3qjRgKQr_32k6vTMR-39" value="Informações De Envio" style="shape=partialRectangle;html=1;whiteSpace=wrap;connectable=0;strokeColor=inherit;overflow=hidden;fillColor=none;top=0;left=0;bottom=0;right=0;pointerEvents=1;" vertex="1" parent="vfF3qjRgKQr_32k6vTMR-38">
          <mxGeometry width="152" height="47" as="geometry">
            <mxRectangle width="152" height="47" as="alternateBounds" />
          </mxGeometry>
        </mxCell>
        <mxCell id="vfF3qjRgKQr_32k6vTMR-40" value="" style="shape=tableRow;horizontal=0;startSize=0;swimlaneHead=0;swimlaneBody=0;strokeColor=inherit;top=0;left=0;bottom=0;right=0;collapsible=0;dropTarget=0;fillColor=none;points=[[0,0.5],[1,0.5]];portConstraint=eastwest;" vertex="1" parent="vfF3qjRgKQr_32k6vTMR-37">
          <mxGeometry y="47" width="152.01089096069336" height="114" as="geometry" />
        </mxCell>
        <mxCell id="vfF3qjRgKQr_32k6vTMR-41" value="&amp;nbsp; -numEnvio: int&lt;div&gt;&amp;nbsp; -tipoEnvio: string&lt;/div&gt;&lt;div&gt;&amp;nbsp; -custoEnvio: float&lt;/div&gt;&lt;div&gt;&amp;nbsp;&amp;nbsp;&lt;/div&gt;" style="shape=partialRectangle;html=1;whiteSpace=wrap;connectable=0;strokeColor=inherit;overflow=hidden;fillColor=none;top=0;left=0;bottom=0;right=0;pointerEvents=1;align=left;" vertex="1" parent="vfF3qjRgKQr_32k6vTMR-40">
          <mxGeometry width="152" height="114" as="geometry">
            <mxRectangle width="152" height="114" as="alternateBounds" />
          </mxGeometry>
        </mxCell>
        <mxCell id="vfF3qjRgKQr_32k6vTMR-42" value="" style="shape=tableRow;horizontal=0;startSize=0;swimlaneHead=0;swimlaneBody=0;strokeColor=inherit;top=0;left=0;bottom=0;right=0;collapsible=0;dropTarget=0;fillColor=none;points=[[0,0.5],[1,0.5]];portConstraint=eastwest;" vertex="1" parent="vfF3qjRgKQr_32k6vTMR-37">
          <mxGeometry y="161" width="152.01089096069336" height="47" as="geometry" />
        </mxCell>
        <mxCell id="vfF3qjRgKQr_32k6vTMR-43" value="&amp;nbsp; +atualizInfoEnvio():" style="shape=partialRectangle;html=1;whiteSpace=wrap;connectable=0;strokeColor=inherit;overflow=hidden;fillColor=none;top=0;left=0;bottom=0;right=0;pointerEvents=1;align=left;" vertex="1" parent="vfF3qjRgKQr_32k6vTMR-42">
          <mxGeometry width="152" height="47" as="geometry">
            <mxRectangle width="152" height="47" as="alternateBounds" />
          </mxGeometry>
        </mxCell>
        <mxCell id="vfF3qjRgKQr_32k6vTMR-44" value="" style="shape=table;startSize=0;container=1;collapsible=0;childLayout=tableLayout;" vertex="1" parent="1">
          <mxGeometry x="769" y="438" width="157" height="201.41299438476562" as="geometry" />
        </mxCell>
        <mxCell id="vfF3qjRgKQr_32k6vTMR-45" value="" style="shape=tableRow;horizontal=0;startSize=0;swimlaneHead=0;swimlaneBody=0;strokeColor=inherit;top=0;left=0;bottom=0;right=0;collapsible=0;dropTarget=0;fillColor=none;points=[[0,0.5],[1,0.5]];portConstraint=eastwest;" vertex="1" parent="vfF3qjRgKQr_32k6vTMR-44">
          <mxGeometry width="157" height="40" as="geometry" />
        </mxCell>
        <mxCell id="vfF3qjRgKQr_32k6vTMR-46" value="Detalhes do Pedido&amp;nbsp;" style="shape=partialRectangle;html=1;whiteSpace=wrap;connectable=0;strokeColor=inherit;overflow=hidden;fillColor=none;top=0;left=0;bottom=0;right=0;pointerEvents=1;" vertex="1" parent="vfF3qjRgKQr_32k6vTMR-45">
          <mxGeometry width="157" height="40" as="geometry">
            <mxRectangle width="157" height="40" as="alternateBounds" />
          </mxGeometry>
        </mxCell>
        <mxCell id="vfF3qjRgKQr_32k6vTMR-47" value="" style="shape=tableRow;horizontal=0;startSize=0;swimlaneHead=0;swimlaneBody=0;strokeColor=inherit;top=0;left=0;bottom=0;right=0;collapsible=0;dropTarget=0;fillColor=none;points=[[0,0.5],[1,0.5]];portConstraint=eastwest;" vertex="1" parent="vfF3qjRgKQr_32k6vTMR-44">
          <mxGeometry y="40" width="157" height="89" as="geometry" />
        </mxCell>
        <mxCell id="vfF3qjRgKQr_32k6vTMR-48" value="&amp;nbsp; -numPedido: int&lt;div&gt;&amp;nbsp; -numProduto: int&lt;/div&gt;&lt;div&gt;&amp;nbsp; -nomeProduto: string&lt;/div&gt;&lt;div&gt;&amp;nbsp; -quantidade: int&amp;nbsp;&lt;/div&gt;&lt;div&gt;&amp;nbsp; -custoUnidade: float&lt;/div&gt;&lt;div&gt;&amp;nbsp; - subTotal: float&lt;/div&gt;" style="shape=partialRectangle;html=1;whiteSpace=wrap;connectable=0;strokeColor=inherit;overflow=hidden;fillColor=none;top=0;left=0;bottom=0;right=0;pointerEvents=1;align=left;" vertex="1" parent="vfF3qjRgKQr_32k6vTMR-47">
          <mxGeometry width="157" height="89" as="geometry">
            <mxRectangle width="157" height="89" as="alternateBounds" />
          </mxGeometry>
        </mxCell>
        <mxCell id="vfF3qjRgKQr_32k6vTMR-49" value="" style="shape=tableRow;horizontal=0;startSize=0;swimlaneHead=0;swimlaneBody=0;strokeColor=inherit;top=0;left=0;bottom=0;right=0;collapsible=0;dropTarget=0;fillColor=none;points=[[0,0.5],[1,0.5]];portConstraint=eastwest;" vertex="1" parent="vfF3qjRgKQr_32k6vTMR-44">
          <mxGeometry y="129" width="157" height="72" as="geometry" />
        </mxCell>
        <mxCell id="vfF3qjRgKQr_32k6vTMR-50" value="&amp;nbsp; +calcularPreço():" style="shape=partialRectangle;html=1;whiteSpace=wrap;connectable=0;strokeColor=inherit;overflow=hidden;fillColor=none;top=0;left=0;bottom=0;right=0;pointerEvents=1;align=left;" vertex="1" parent="vfF3qjRgKQr_32k6vTMR-49">
          <mxGeometry width="157" height="72" as="geometry">
            <mxRectangle width="157" height="72" as="alternateBounds" />
          </mxGeometry>
        </mxCell>
        <mxCell id="vfF3qjRgKQr_32k6vTMR-51" style="edgeStyle=none;curved=1;rounded=0;orthogonalLoop=1;jettySize=auto;html=1;fontSize=12;startSize=20;endSize=20;endArrow=block;endFill=0;" edge="1" parent="1" source="vfF3qjRgKQr_32k6vTMR-12">
          <mxGeometry relative="1" as="geometry">
            <mxPoint x="542" y="143" as="targetPoint" />
          </mxGeometry>
        </mxCell>
        <mxCell id="vfF3qjRgKQr_32k6vTMR-52" value="" style="edgeStyle=none;orthogonalLoop=1;jettySize=auto;html=1;rounded=0;fontSize=12;startSize=20;endSize=20;curved=1;exitX=0.529;exitY=0.167;exitDx=0;exitDy=0;exitPerimeter=0;endArrow=diamond;endFill=1;shadow=1;" edge="1" parent="1" source="vfF3qjRgKQr_32k6vTMR-31" target="vfF3qjRgKQr_32k6vTMR-14">
          <mxGeometry width="140" relative="1" as="geometry">
            <mxPoint x="296" y="592" as="sourcePoint" />
            <mxPoint x="436" y="592" as="targetPoint" />
            <Array as="points" />
          </mxGeometry>
        </mxCell>
        <mxCell id="vfF3qjRgKQr_32k6vTMR-53" value="" style="edgeStyle=segmentEdgeStyle;endArrow=diamond;html=1;curved=0;rounded=0;endSize=20;startSize=20;sourcePerimeterSpacing=0;targetPerimeterSpacing=0;fontSize=12;exitX=0.704;exitY=0.181;exitDx=0;exitDy=0;exitPerimeter=0;entryX=0;entryY=0.5;entryDx=0;entryDy=0;endFill=1;" edge="1" parent="1" source="vfF3qjRgKQr_32k6vTMR-24" target="vfF3qjRgKQr_32k6vTMR-12">
          <mxGeometry width="140" relative="1" as="geometry">
            <mxPoint x="128" y="537" as="sourcePoint" />
            <mxPoint x="268" y="597" as="targetPoint" />
            <Array as="points">
              <mxPoint x="152" y="263" />
            </Array>
          </mxGeometry>
        </mxCell>
        <mxCell id="vfF3qjRgKQr_32k6vTMR-54" value="" style="edgeStyle=segmentEdgeStyle;endArrow=diamond;html=1;curved=0;rounded=0;endSize=20;startSize=20;sourcePerimeterSpacing=0;targetPerimeterSpacing=0;fontSize=12;exitX=0;exitY=0.5;exitDx=0;exitDy=0;endFill=1;" edge="1" parent="1" source="vfF3qjRgKQr_32k6vTMR-47">
          <mxGeometry width="140" relative="1" as="geometry">
            <mxPoint x="566" y="774" as="sourcePoint" />
            <mxPoint x="456" y="689" as="targetPoint" />
            <Array as="points">
              <mxPoint x="699" y="523" />
              <mxPoint x="699" y="689" />
            </Array>
          </mxGeometry>
        </mxCell>
        <mxCell id="vfF3qjRgKQr_32k6vTMR-55" value="1" style="text;html=1;align=center;verticalAlign=middle;resizable=0;points=[];autosize=1;strokeColor=none;fillColor=none;fontSize=16;" vertex="1" parent="1">
          <mxGeometry x="348" y="370.5" width="27" height="31" as="geometry" />
        </mxCell>
        <mxCell id="vfF3qjRgKQr_32k6vTMR-56" value="1" style="text;html=1;align=center;verticalAlign=middle;resizable=0;points=[];autosize=1;strokeColor=none;fillColor=none;fontSize=16;" vertex="1" parent="1">
          <mxGeometry x="251" y="234.5" width="27" height="31" as="geometry" />
        </mxCell>
        <mxCell id="vfF3qjRgKQr_32k6vTMR-57" value="0..*" style="text;html=1;align=center;verticalAlign=middle;resizable=0;points=[];autosize=1;strokeColor=none;fillColor=none;fontSize=16;" vertex="1" parent="1">
          <mxGeometry x="105" y="316.5" width="42" height="31" as="geometry" />
        </mxCell>
        <mxCell id="vfF3qjRgKQr_32k6vTMR-58" value="0..*" style="text;html=1;align=center;verticalAlign=middle;resizable=0;points=[];autosize=1;strokeColor=none;fillColor=none;fontSize=16;" vertex="1" parent="1">
          <mxGeometry x="329" y="534.5" width="42" height="31" as="geometry" />
        </mxCell>
        <mxCell id="vfF3qjRgKQr_32k6vTMR-59" value="" style="edgeStyle=segmentEdgeStyle;endArrow=diamond;html=1;curved=0;rounded=0;endSize=20;startSize=20;sourcePerimeterSpacing=0;targetPerimeterSpacing=0;fontSize=12;exitX=0;exitY=0.5;exitDx=0;exitDy=0;entryX=1;entryY=0.5;entryDx=0;entryDy=0;endFill=1;" edge="1" parent="1" source="vfF3qjRgKQr_32k6vTMR-40" target="vfF3qjRgKQr_32k6vTMR-33">
          <mxGeometry width="140" relative="1" as="geometry">
            <mxPoint x="474" y="520" as="sourcePoint" />
            <mxPoint x="614" y="580" as="targetPoint" />
            <Array as="points">
              <mxPoint x="544" y="404" />
              <mxPoint x="544" y="646" />
            </Array>
          </mxGeometry>
        </mxCell>
        <mxCell id="vfF3qjRgKQr_32k6vTMR-60" value="1" style="text;html=1;align=center;verticalAlign=middle;resizable=0;points=[];autosize=1;strokeColor=none;fillColor=none;fontSize=16;" vertex="1" parent="1">
          <mxGeometry x="504" y="403.5" width="27" height="31" as="geometry" />
        </mxCell>
        <mxCell id="vfF3qjRgKQr_32k6vTMR-61" value="1" style="text;html=1;align=center;verticalAlign=middle;resizable=0;points=[];autosize=1;strokeColor=none;fillColor=none;fontSize=16;" vertex="1" parent="1">
          <mxGeometry x="482" y="614.5" width="27" height="31" as="geometry" />
        </mxCell>
        <mxCell id="vfF3qjRgKQr_32k6vTMR-62" value="1" style="text;html=1;align=center;verticalAlign=middle;resizable=0;points=[];autosize=1;strokeColor=none;fillColor=none;fontSize=16;" vertex="1" parent="1">
          <mxGeometry x="732" y="531.5" width="27" height="31" as="geometry" />
        </mxCell>
        <mxCell id="vfF3qjRgKQr_32k6vTMR-63" value="1" style="text;html=1;align=center;verticalAlign=middle;resizable=0;points=[];autosize=1;strokeColor=none;fillColor=none;fontSize=16;" vertex="1" parent="1">
          <mxGeometry x="483" y="650.5" width="27" height="31" as="geometry" />
        </mxCell>
      </root>
    </mxGraphModel>
  </diagram>
</mxfile>
